<svg width="587" height="213" viewBox="0 0 587 213" fill="none" xmlns="http://www.w3.org/2000/svg">
<g clip-path="url(#clip0_74_17871)">
<path fill-rule="evenodd" clip-rule="evenodd" d="M250.539 0C257.475 27.534 233.808 22.0272 224.938 33.4612C223.467 4.49792 241.038 17.151 250.539 0Z" fill="#ED1C24"/>
<path fill-rule="evenodd" clip-rule="evenodd" d="M261.72 109.169L273.827 98.0295L285.933 109.169L273.827 120.267L261.72 109.169ZM261.72 72.8495L273.827 61.7519L285.933 72.8495L273.827 83.9893L261.72 72.8495Z" fill="#ED1C24"/>
<path fill-rule="evenodd" clip-rule="evenodd" d="M339.656 93.6575C330.745 90.757 328.222 79.9956 331.964 73.7742C334.654 69.3183 339.362 67.0483 344.07 69.3183C347.643 70.9998 349.199 75.4557 347.854 75.9181C346.803 76.4225 346.214 75.2034 346.172 75.0353C344.617 69.7807 337.555 71.7564 335.789 75.4557C334.023 79.239 334.738 84.8298 340.749 86.5113C347.938 88.487 352.141 85.7967 354.453 81.1306C357.69 74.5729 357.312 63.223 351.637 56.7073C346.887 51.2005 340.329 50.0235 333.729 48.2579C329.694 48.1318 327.214 48.2579 326.415 48.6363L325.364 49.9814V120.015C325.658 129.01 326.289 133.887 327.256 134.643L329.399 136.409C332.468 136.871 335.873 137.208 339.614 137.334C340.161 137.586 340.455 137.964 340.455 138.511C340.329 139.141 339.909 139.52 339.194 139.688C323.43 139.435 309.726 139.435 297.956 139.688L296.947 138.889C296.821 138.132 296.947 137.67 297.325 137.544L304.009 136.829C305.691 136.703 306.91 135.022 307.624 131.785C308.465 123.84 308.759 118.627 308.465 116.231V53.8908C308.339 50.3177 307.624 47.9637 306.321 46.9548C304.261 45.6517 302.706 45.1052 301.739 45.1893L295.896 45.0211C295.055 44.7689 294.719 44.3065 294.845 43.6759C295.392 42.7932 296.022 42.3728 296.737 42.4989L322.463 42.8772L339.614 42.4989C345.331 42.7511 352.309 43.5078 355.925 44.7689C364.416 48.4261 370.806 54.6895 371.436 64.2319C372.445 73.1016 369.586 82.2236 363.869 88.1087C357.9 94.246 349.325 96.8523 339.74 93.6996M438.316 76.9269C429.993 81.2147 420.325 76.0862 418.055 69.2342C416.415 64.2739 418.685 58.2627 423.477 56.1608C427.093 54.5634 431.506 56.329 430.96 57.6321C430.666 58.7671 429.363 58.3888 429.194 58.3467C424.192 56.0768 421.165 62.5924 422.847 66.3757C424.57 70.2011 429.152 73.3538 434.365 69.9489C437.56 67.847 439.283 65.0306 439.073 62.0039C438.443 51.4107 428.438 48.5522 420.451 51.789C410.236 57.464 404.771 68.2674 404.014 84.1573C403.888 87.268 404.099 91.3455 404.645 96.474C405.738 102.948 407.63 108.707 410.32 113.667C413.977 120.183 418.727 125.143 424.57 128.632C428.9 130.86 434.113 132.499 440.208 133.466C446.429 133.845 451.642 133.13 455.888 131.364C466.859 126.656 473.081 115.937 474.552 99.2064C475.393 83.7369 472.366 71.4622 465.43 62.3402C461.899 57.9264 457.653 54.5214 452.777 52.1253C450.759 46.7867 446.009 43.2556 440.67 41.9104C448.027 41.9524 454.879 42.9193 461.142 44.8109C481.068 51.4107 491.787 64.9885 493.258 85.5865C493.805 102.023 488.676 115.475 477.789 125.984C472.114 130.986 466.145 134.517 459.923 136.619C454.459 138.511 448.405 139.604 441.763 140.024C433.104 140.276 425.327 139.267 418.391 136.997C398.886 129.893 387.956 115.559 385.644 93.9938C385.14 79.0288 390.016 66.3757 400.315 56.0347C405.234 51.0744 411.623 47.5013 418.097 45.6517C429.194 42.4569 440.502 44.2645 444.958 52.5877C449.498 60.995 446.892 72.5551 438.274 76.969L438.316 76.9269Z" fill="#F7A70C"/>
<path fill-rule="evenodd" clip-rule="evenodd" d="M339.656 93.6578C330.745 90.7572 328.222 79.9958 331.964 73.7744C334.654 69.3185 339.362 67.0485 344.07 69.3185C347.643 71 349.199 75.4559 347.854 75.9183C346.803 76.4227 346.214 75.2037 346.172 75.0355C344.617 69.7809 337.555 71.7567 335.789 75.4559C334.023 79.2392 334.738 84.8301 340.749 86.5115C347.938 88.4872 352.141 85.7969 354.453 81.1308C357.69 74.5731 357.312 63.2232 351.637 56.7075C346.887 51.2007 340.329 50.0237 333.729 48.2582C329.694 48.132 327.214 48.2582 326.415 48.6365L325.364 49.9817V120.015C325.658 129.011 326.289 133.887 327.256 134.643L329.399 136.409C332.468 136.871 335.873 137.208 339.614 137.334C340.161 137.586 340.455 137.964 340.455 138.511C340.329 139.141 339.909 139.52 339.194 139.688C323.43 139.436 309.726 139.436 297.956 139.688L296.947 138.889C296.821 138.133 296.947 137.67 297.325 137.544L304.009 136.829C305.691 136.703 306.91 135.022 307.624 131.785C308.465 123.84 308.759 118.628 308.465 116.231V53.8911C308.339 50.318 307.624 47.9639 306.321 46.955C304.261 45.6519 302.706 45.1054 301.739 45.1895L295.896 45.0213C295.055 44.7691 294.719 44.3067 294.845 43.6762C295.392 42.7934 296.022 42.373 296.737 42.4991L322.463 42.8775L339.614 42.4991C345.331 42.7514 352.309 43.508 355.925 44.7691C364.416 48.4263 370.806 54.6898 371.436 64.2321C372.445 73.1018 369.586 82.2238 363.869 88.1089C357.9 94.2463 349.325 96.8525 339.74 93.6998" fill="#F7A70C"/>
<path fill-rule="evenodd" clip-rule="evenodd" d="M210.856 42.2888L223.677 42.6672H236.036L247.512 42.2888L249.193 42.8774C249.319 43.7181 249.193 44.3066 248.773 44.5588C245.284 44.6849 242.636 45.1473 240.786 45.904C238.726 46.9549 237.717 50.2758 237.843 55.9508V124.26C237.97 130.65 238.684 134.223 239.987 135.022L241.669 136.199L252.304 137.334C252.851 137.712 252.935 138.301 252.514 139.057L250.244 139.646L227.629 139.267L210.267 139.478L209.217 138.721V137.754L210.057 137.166C213.42 137.166 215.69 136.913 216.951 136.451C218.465 135.82 219.431 134.391 219.852 132.163C220.693 124.218 220.987 119.006 220.693 116.61L220.482 50.9484C220.062 48.9306 219.347 47.3753 218.381 46.3664L216.531 45.3996L209.847 44.811C209.006 44.4327 208.712 43.8022 209.006 42.9194L210.856 42.3309V42.2888Z" fill="#F7A70C"/>
<path fill-rule="evenodd" clip-rule="evenodd" d="M99.711 63.3491C99.711 73.7742 110.725 81.7192 120.225 80.2479C124.681 79.5333 129.599 76.6748 131.407 71.21C133.046 66.2497 130.776 60.2384 125.984 58.1366C122.369 56.5392 117.955 58.3047 118.501 59.6079C118.838 60.7429 120.099 60.3645 120.267 60.3225C125.269 58.0525 128.296 64.5682 126.614 68.3515C122.243 78.146 107.782 71.2941 108.16 63.9797C108.581 56.2449 116.484 50.4439 122.453 50.3178L141.832 50.4018V121.15C141.706 129.935 140.781 134.854 139.141 135.904C138.301 136.913 135.568 137.46 131.028 137.46C130.44 137.712 130.272 138.216 130.398 138.931C130.818 139.562 131.743 139.898 133.088 139.898C136.577 139.52 149.735 139.435 172.687 139.688C173.696 139.435 174.074 138.847 173.948 137.964C173.696 137.46 172.939 137.25 171.678 137.25L165.835 137.039L162.724 136.241C161.463 135.736 160.538 134.517 159.992 132.584C159.571 130.44 159.235 125.437 158.983 117.618V50.3598C167.474 50.3598 174.746 50.528 180.884 50.9063C187.021 51.8311 188.24 53.7227 189.207 56.6653L189.627 60.7008L190.048 61.4575L191.309 61.8358C191.729 61.7097 192.066 61.3314 192.36 60.6588L192.78 42.6251C192.78 42.1627 192.234 41.9525 191.099 42.0786L183.406 43.1715H123.125C111.397 43.1715 99.669 51.8311 99.627 63.3071" fill="#F7A70C"/>
<path d="M485.734 206.442C485.145 206.694 484.178 206.989 482.749 207.367C481.32 207.745 479.722 207.998 477.873 208.208C476.065 208.418 474.384 208.544 472.828 208.544C472.114 208.544 471.525 208.46 471.147 208.46C468.036 208.25 465.178 207.409 462.445 206.022C459.797 204.635 457.569 202.659 456.014 200.095C454.332 197.53 453.492 194.462 453.534 190.973C453.744 187.988 454.332 185.382 455.341 183.112C456.518 180.842 457.947 178.95 459.755 177.437C461.563 175.966 463.664 174.831 465.934 174.032C468.331 173.275 470.811 172.897 473.375 172.897C475.183 172.897 477.116 173.065 479.008 173.233C480.942 173.443 482.455 173.822 483.674 174.326C483.674 176.344 483.59 178.32 483.59 180.295C483.127 180.127 482.665 179.875 482.245 179.665C478.545 177.773 475.098 176.806 472.114 176.806C471.525 176.806 471.147 176.806 470.937 176.806C468.667 176.974 466.649 177.605 464.841 178.908C463.034 180.085 461.605 181.683 460.554 183.7C459.503 185.76 458.998 187.904 458.998 190.342C458.998 190.51 459.082 190.636 459.082 190.805V191.309C459.167 193.032 459.545 194.63 460.259 196.143C460.89 197.657 461.899 198.918 463.034 200.095C464.211 201.23 465.43 202.154 466.985 202.869C468.457 203.584 470.222 204.004 472.114 204.256C472.366 204.256 472.913 204.256 473.585 204.256C475.477 204.256 477.032 204.004 478.251 203.626C478.714 203.458 479.218 203.331 479.722 203.163C479.807 202.028 479.933 201.104 479.933 200.431C479.933 198.119 479.68 195.891 478.966 193.705C478.714 192.864 478.251 191.855 477.663 190.636C480.437 190.636 483.254 190.636 486.112 190.636C485.481 193.159 485.145 195.176 485.145 196.732C485.061 197.993 485.061 199.17 485.061 200.431C484.977 202.154 485.145 203.668 485.397 205.013C485.481 205.475 485.524 205.896 485.65 206.358M439.241 208.166C433.398 200.473 427.555 192.738 421.796 185.046C421.712 191.351 421.712 197.572 421.67 203.836C421.67 204.088 421.754 204.551 421.796 205.139C421.922 205.686 422.048 206.274 422.174 206.863C422.258 206.947 422.3 207.115 422.426 207.409C422.553 207.703 422.637 207.913 422.637 207.998C420.03 207.998 417.508 207.998 414.986 207.998C415.07 207.871 415.196 207.661 415.322 207.409C415.448 207.157 415.532 206.905 415.575 206.736C415.785 206.232 415.911 205.686 415.911 205.139C415.995 204.551 416.037 204.088 416.037 203.836C416.121 194.966 416.163 186.138 416.247 177.311C416.037 177.101 415.743 176.722 415.28 176.218C414.818 175.755 414.524 175.419 414.229 175.167C413.851 174.747 413.305 174.368 412.758 173.99C412.17 173.612 411.665 173.317 411.455 173.149H419.568C426 181.683 432.389 190.132 438.905 198.623C438.989 191.645 439.031 184.541 439.031 177.479C438.947 177.227 438.905 176.848 438.821 176.386C438.737 175.882 438.695 175.461 438.569 174.999C438.485 174.704 438.358 174.326 438.232 173.99C438.106 173.654 438.022 173.401 438.022 173.233C440.544 173.233 443.066 173.233 445.673 173.317C445.673 173.317 445.547 173.485 445.463 173.569C445.379 173.738 445.336 173.864 445.21 174.074C445.126 174.242 445.084 174.452 445 174.578C444.79 175.041 444.748 175.545 444.664 176.092C444.58 176.68 444.538 177.143 444.538 177.437C444.454 186.349 444.454 195.134 444.412 203.962C444.496 204.214 444.496 204.593 444.538 205.097C444.622 205.601 444.748 206.064 444.79 206.568C444.874 206.736 444.916 206.947 445 207.157C445.084 207.367 445.126 207.619 445.252 207.787C445.336 207.955 445.379 208.082 445.379 208.166C443.319 208.166 441.217 208.166 439.199 208.166H439.241ZM372.823 190.09C373.033 192.192 373.538 194.125 374.295 195.807C375.135 197.572 376.186 199.002 377.489 200.221C378.792 201.524 380.264 202.491 381.903 203.121C383.543 203.752 385.224 204.088 386.906 204.088H388.125C389.89 203.92 391.445 203.205 392.875 201.944C394.304 200.683 395.481 199.086 396.238 197.194C397.078 195.26 397.541 193.285 397.541 191.309C397.541 190.762 397.457 190.3 397.457 190.048C397.205 187.273 396.28 184.919 394.808 182.776C393.463 180.716 391.614 179.118 389.47 178.025C387.326 176.89 385.266 176.344 383.122 176.344C381.104 176.428 379.381 177.101 377.784 178.32C376.144 179.497 375.009 181.094 374.084 183.028C373.244 184.919 372.865 186.895 372.781 188.955V190.09H372.823ZM402.669 189.964C402.669 192.738 402.207 195.218 401.24 197.488C400.273 199.674 399.054 201.608 397.415 203.163C395.775 204.719 393.926 205.938 391.824 206.863C389.764 207.703 387.536 208.082 385.35 208.082C385.14 208.082 384.972 208.082 384.846 208.082H384.257C380.894 207.913 377.952 206.989 375.556 205.391C373.033 203.794 371.142 201.734 369.797 199.086C368.451 196.522 367.737 193.579 367.653 190.384C367.653 187.946 368.115 185.718 368.998 183.532C369.839 181.388 371.058 179.497 372.613 177.857C374.252 176.26 376.06 174.999 378.12 174.116C380.18 173.233 382.45 172.687 384.804 172.645C387.326 172.645 389.596 173.149 391.74 173.948C393.884 174.789 395.775 175.966 397.373 177.521C399.012 179.118 400.231 180.926 401.114 183.028C402.039 185.13 402.543 187.4 402.585 189.964H402.669ZM348.358 172.855C349.787 172.855 351.132 173.107 352.52 173.612C353.823 174.074 355.042 174.747 356.093 175.587C357.144 176.428 357.984 177.479 358.573 178.698C359.161 179.875 359.498 181.136 359.498 182.523C359.498 185.214 358.699 187.484 357.144 189.417C355.588 191.309 353.444 192.318 350.796 192.444C349.619 192.444 348.442 192.444 347.307 192.444V203.542C347.391 203.836 347.433 204.298 347.517 204.887C347.601 205.475 347.643 206.022 347.853 206.568C347.853 206.652 347.938 206.82 348.064 207.073C348.148 207.325 348.19 207.493 348.274 207.577C348.274 207.661 348.358 207.745 348.358 207.745H340.791C340.791 207.745 340.917 207.409 341.044 207.157C341.17 206.905 341.254 206.652 341.296 206.442C341.422 205.938 341.632 205.391 341.674 204.845C341.758 204.298 341.758 203.836 341.8 203.542C341.8 194.714 341.8 185.886 341.884 177.017C341.8 176.68 341.8 176.218 341.758 175.629C341.674 175.083 341.548 174.494 341.38 173.948C341.296 173.822 341.17 173.654 341.128 173.401C341.001 173.191 340.875 172.981 340.875 172.897C343.398 172.897 345.92 172.897 348.526 172.897L348.358 172.855ZM348.778 190.468C349.871 190.09 350.838 189.585 351.637 188.829C352.435 188.072 352.94 187.189 353.402 186.18C353.781 185.172 353.991 184.079 353.991 182.818C353.991 181.725 353.655 180.716 353.15 179.707C352.562 178.656 351.847 177.815 351.006 177.143C350.165 176.386 349.241 175.966 348.358 175.755C347.98 175.671 347.643 175.587 347.307 175.545V190.931C347.769 190.762 348.274 190.636 348.778 190.468ZM309.054 163.649C309.684 163.439 310.231 163.859 310.609 164.868C315.401 176.806 320.193 188.745 324.943 200.683C325.868 202.659 326.583 203.878 327.087 204.466C327.928 205.391 328.643 205.938 329.231 206.19C330.324 206.442 331.375 206.568 332.468 206.568C332.552 206.652 332.594 206.736 332.72 206.778C332.72 207.283 332.51 207.577 332.006 207.577C331.375 207.577 330.702 207.661 330.114 207.703C321.959 207.703 317.797 207.535 317.713 207.241V206.736C318.049 206.526 318.344 206.4 318.68 206.4C318.932 206.232 319.058 205.938 319.142 205.559C317.503 201.398 315.948 197.236 314.476 193.032C314.35 193.032 314.224 192.948 314.14 192.864C309.852 192.864 305.565 192.864 301.361 192.864C301.151 193.075 301.025 193.327 300.899 193.537C299.679 196.522 298.629 199.422 297.536 202.365C297.409 202.995 297.283 203.626 297.157 204.172C297.073 205.307 297.241 205.98 297.662 206.232C297.914 206.358 298.166 206.4 298.46 206.484C299.932 206.484 300.814 206.568 300.983 206.652C301.193 207.115 301.067 207.409 300.73 207.577C296.989 207.451 292.281 207.409 286.732 207.577C286.606 207.451 286.48 207.367 286.354 207.241C286.354 207.073 286.438 206.863 286.48 206.652C286.69 206.652 286.858 206.526 287.068 206.484C288.414 206.652 289.801 206.316 290.978 205.517C291.945 204.845 292.912 203.247 293.878 200.683C298.629 188.829 303.337 176.89 308.087 164.994C308.339 164.363 308.675 163.901 309.054 163.691V163.649ZM302.37 189.712C302.37 189.712 302.454 189.88 302.496 189.964C306.069 189.964 309.684 189.964 313.341 189.964C311.534 185.045 309.726 180.127 307.961 175.209C307.835 175.335 307.708 175.377 307.624 175.503C305.859 180.253 304.135 185.003 302.37 189.67V189.712ZM243.518 190.09C243.645 192.192 244.149 194.125 244.99 195.807C245.788 197.53 246.797 198.96 248.185 200.179C249.488 201.44 250.959 202.407 252.598 202.995C254.238 203.668 255.919 204.004 257.643 203.962C258.147 203.962 258.568 203.962 258.82 203.962C260.585 203.794 262.183 203.037 263.612 201.818C265.041 200.557 266.134 198.96 266.933 197.026C267.774 195.134 268.152 193.159 268.152 191.183C268.152 190.636 268.152 190.174 268.068 189.922C267.732 187.147 266.891 184.793 265.462 182.649C263.906 180.59 262.099 178.992 259.997 177.899C257.853 176.764 255.709 176.302 253.649 176.302C251.632 176.386 249.908 177.059 248.353 178.278C246.797 179.497 245.578 181.094 244.738 183.028C243.897 184.919 243.434 186.895 243.434 188.955C243.434 189.459 243.434 189.838 243.518 190.09ZM273.196 189.754C273.28 192.528 272.818 195.008 271.893 197.236C270.968 199.464 269.623 201.398 268.068 202.953C266.513 204.551 264.579 205.77 262.477 206.694C260.417 207.535 258.189 207.913 256.003 207.955C255.793 207.955 255.667 207.955 255.541 207.955H254.91C251.59 207.787 248.731 206.905 246.167 205.349C243.771 203.794 241.837 201.734 240.408 199.086C239.063 196.522 238.348 193.579 238.264 190.384C238.264 187.946 238.642 185.718 239.567 183.532C240.492 181.388 241.627 179.497 243.182 177.857C244.822 176.26 246.629 174.957 248.773 174.032C250.791 173.149 252.977 172.603 255.373 172.603C257.853 172.603 260.165 173.023 262.309 173.822C264.453 174.662 266.344 175.839 267.9 177.395C269.539 178.95 270.8 180.758 271.725 182.86C272.65 184.961 273.154 187.231 273.196 189.796V189.754ZM209.006 192.57C208.67 192.738 208.418 192.906 208.166 193.032C208.166 196.606 208.166 200.221 208.25 203.752C208.334 204.046 208.334 204.508 208.376 205.013C208.46 205.517 208.502 206.106 208.754 206.61C208.838 206.821 208.88 207.115 209.006 207.325C209.132 207.577 209.217 207.787 209.259 207.871C206.652 207.871 204.088 207.871 201.524 207.955C201.608 207.829 201.734 207.661 201.86 207.409C201.944 207.157 202.07 206.905 202.07 206.821C202.196 206.274 202.407 205.686 202.449 205.097C202.533 204.508 202.575 204.046 202.575 203.752C202.491 194.924 202.491 186.054 202.449 177.227C202.449 176.89 202.365 176.428 202.323 175.755C202.196 175.167 202.07 174.62 201.86 174.116C201.86 173.948 201.776 173.78 201.65 173.612C201.566 173.443 201.398 173.275 201.398 173.149C204.172 173.149 206.989 173.149 209.763 173.023C211.234 173.023 212.664 173.233 214.219 173.738C215.774 174.2 217.204 174.873 218.423 175.629C219.642 176.47 220.693 177.479 221.491 178.698C222.29 179.917 222.71 181.136 222.71 182.439C222.71 184.331 222.374 185.886 221.659 187.231C221.071 188.577 219.642 189.964 217.498 191.309C216.867 191.729 216.195 192.108 215.69 192.486C215.9 192.948 216.069 193.369 216.279 193.831C216.489 194.209 216.909 194.798 217.582 195.597C218.212 196.395 219.137 197.362 220.23 198.707C221.533 200.179 222.374 201.146 222.836 201.734C223.299 202.196 223.887 202.785 224.518 203.416C225.148 204.046 225.947 204.677 226.914 205.391C227.965 206.232 229.058 207.073 230.151 207.871C228.511 207.871 226.956 207.871 225.401 207.871C224.77 207.577 224.098 207.283 223.509 206.947C222.29 206.274 221.239 205.601 220.398 204.887C219.558 204.13 218.002 202.785 215.774 200.767C213.294 198.413 211.024 195.723 208.88 192.57H209.006ZM209.343 191.225C211.529 190.72 213.42 189.838 214.976 188.45C216.531 187.063 217.33 185.592 217.33 183.826C217.33 183.658 217.33 183.322 217.246 182.944C216.909 181.346 216.321 180.127 215.438 179.244C214.513 178.32 213.672 177.689 212.832 177.353C211.991 176.974 210.772 176.554 209.048 176.092C208.712 176.092 208.418 175.924 208.082 175.839C208.082 181.094 208.166 186.307 208.166 191.519C208.544 191.435 208.964 191.351 209.343 191.267V191.225ZM192.906 187.526C192.99 188.745 192.528 189.796 191.687 190.594C190.847 191.393 189.754 191.771 188.45 191.813C187.273 191.729 186.391 191.309 185.592 190.552C184.793 189.712 184.415 188.745 184.415 187.61C184.415 186.475 184.793 185.634 185.634 184.835C186.475 184.037 187.442 183.616 188.619 183.574C189.333 183.574 190.048 183.742 190.762 184.037C191.393 184.415 191.939 184.835 192.318 185.508C192.696 186.054 192.906 186.727 192.906 187.526ZM193.159 204.298C193.159 205.433 192.78 206.4 191.939 207.283C191.099 208.082 190.048 208.46 188.745 208.46C187.694 208.46 186.727 207.998 185.97 207.199C185.13 206.4 184.793 205.433 184.793 204.34C184.793 203.626 185.003 202.953 185.382 202.323C185.76 201.692 186.307 201.23 186.937 200.893C187.526 200.515 188.24 200.347 188.997 200.263C190.09 200.263 191.141 200.683 191.855 201.44C192.696 202.196 193.074 203.121 193.159 204.256V204.298ZM145.951 190.594C146.162 192.696 146.582 194.588 147.423 196.269C148.263 197.993 149.356 199.464 150.659 200.683C151.963 201.902 153.434 202.827 155.073 203.458C156.755 204.13 158.436 204.424 160.118 204.424C160.622 204.424 161.043 204.424 161.337 204.424C163.018 204.256 164.658 203.458 166.087 202.196C167.432 200.977 168.567 199.38 169.408 197.404C170.207 195.513 170.585 193.537 170.585 191.519C170.585 191.015 170.585 190.552 170.501 190.3C170.165 187.526 169.324 185.172 167.852 183.07C166.381 180.968 164.532 179.413 162.472 178.362C160.286 177.227 158.142 176.722 156.124 176.764C154.106 176.848 152.299 177.521 150.744 178.782C149.188 180.001 147.969 181.556 147.17 183.49C146.33 185.382 145.867 187.4 145.867 189.459C145.867 189.964 145.867 190.342 145.951 190.594ZM175.713 190.132C175.797 192.906 175.251 195.387 174.368 197.657C173.443 199.884 172.182 201.776 170.669 203.373C169.03 205.013 167.18 206.232 165.078 207.115C162.934 207.955 160.79 208.376 158.52 208.376C158.394 208.376 158.184 208.376 158.058 208.376C157.932 208.376 157.722 208.376 157.553 208.376C154.191 208.208 151.248 207.325 148.684 205.812C146.204 204.256 144.27 202.196 142.925 199.548C141.495 196.984 140.865 194.041 140.739 190.847C140.739 188.408 141.201 186.18 142.042 183.995C142.883 181.851 144.102 179.959 145.615 178.32C147.255 176.68 149.062 175.419 151.206 174.494C153.224 173.569 155.41 173.023 157.806 172.981C160.286 172.981 162.598 173.443 164.742 174.2C166.886 175.041 168.777 176.218 170.375 177.731C172.014 179.286 173.275 181.094 174.2 183.196C175.125 185.298 175.629 187.568 175.755 190.09L175.713 190.132ZM101.645 164.363C105.344 164.363 109.043 164.448 112.784 164.448C115.265 164.363 117.703 164.279 120.225 164.195C122.747 164.321 124.849 164.658 126.404 165.204C128.044 165.877 129.137 166.465 129.599 166.928C130.776 167.895 131.659 169.114 132.331 170.585C132.836 171.804 133.13 172.981 133.256 173.99C133.172 176.848 132.752 179.16 131.911 180.842C129.515 185.676 125.564 188.282 120.099 188.745C117.913 188.955 116.862 188.745 116.862 188.24C116.862 188.072 116.946 187.82 117.072 187.61C117.282 187.61 117.451 187.526 117.703 187.442C120.183 187.61 122.453 186.433 124.429 183.868C125.522 182.145 126.194 180.379 126.236 178.362C126.362 174.957 125.522 172.224 123.882 170.207C122.915 169.072 121.822 168.231 120.561 167.6C119.594 167.348 118.67 167.096 117.787 166.844C116.021 166.76 114.928 166.844 114.592 167.012C114.382 167.222 114.256 167.474 114.13 167.684C114.214 178.32 114.34 188.955 114.382 199.59C114.508 203.668 114.76 205.896 115.181 206.232C115.517 206.526 115.811 206.778 116.147 207.031C117.493 207.241 119.006 207.367 120.603 207.409C120.855 207.577 120.982 207.703 120.982 207.913C120.898 208.208 120.729 208.376 120.393 208.418C113.583 208.418 107.614 208.418 102.485 208.586C102.275 208.502 102.149 208.418 102.023 208.25C101.939 207.913 102.023 207.703 102.233 207.661C103.2 207.535 104.167 207.409 105.134 207.325C105.848 207.241 106.353 206.484 106.689 204.971C106.941 201.356 107.067 198.96 106.941 197.867C106.857 188.408 106.815 178.95 106.689 169.45C106.605 167.81 106.353 166.76 105.764 166.339C104.84 165.751 104.209 165.498 103.747 165.54C102.906 165.54 102.065 165.54 101.224 165.54C100.888 165.414 100.72 165.204 100.762 164.994C100.972 164.574 101.224 164.405 101.561 164.448L101.645 164.363Z" fill="#F7A70C"/>
<path fill-rule="evenodd" clip-rule="evenodd" d="M494.267 211.15C494.604 209.217 494.898 207.199 495.318 205.181C501.75 202.617 508.139 200.011 514.655 197.446C521.381 194.924 528.149 194.336 534.833 191.645C541.516 188.997 546.519 188.156 553.833 186.433C567.453 183.154 565.393 180.169 569.135 177.689C574.389 174.2 580.484 175.755 587.042 174.242C586.412 183.826 578.761 189.712 567.663 188.871C552.698 187.778 522.053 199.548 494.309 211.15M514.823 192.696C518.522 190.678 528.821 177.983 532.268 170.921C534.412 166.591 535.505 166.381 534.791 160.37C528.443 163.481 523.567 168.105 521.087 173.738C518.943 180.085 516.799 186.391 514.781 192.696M543.156 185.97C548.663 181.304 548.999 181.43 553.455 175.419C556.818 170.837 558.499 166.213 558.751 160.538C547.023 166.171 548.494 165.583 544.753 177.311C542.988 182.944 542.399 179.959 543.114 185.928M545.51 197.026C550.176 202.365 553.665 206.905 567.999 204.719C564.048 197.026 554.464 194.84 545.51 197.026ZM518.817 204.803C522.39 211.445 530.166 213.714 539.625 211.445C534.244 206.442 528.401 203.331 518.817 204.803Z" fill="#F7A70C"/>
<path fill-rule="evenodd" clip-rule="evenodd" d="M92.6909 211.319C64.9467 199.716 34.302 187.82 19.2949 188.955C8.28127 189.796 0.630597 183.911 0.0420837 174.284C6.5998 175.84 12.611 174.284 17.8656 177.773C21.6069 180.253 19.5471 183.238 33.167 186.559C40.4814 188.24 45.4837 189.123 52.1675 191.771C58.8514 194.462 65.5772 195.05 72.2611 197.573C78.7347 200.179 85.1663 202.743 91.64 205.349C92.0183 207.367 92.3546 209.343 92.6909 211.319ZM72.135 192.822C70.0752 186.517 67.9313 180.253 65.8295 173.864C63.3493 168.231 58.5151 163.649 52.1255 160.496C51.4109 166.507 52.5038 166.718 54.6477 171.005C58.0947 178.11 68.3937 190.847 72.0929 192.822M43.7602 186.054C44.4748 180.043 43.8863 183.028 42.1208 177.395C38.3795 165.709 39.8508 166.255 28.2907 160.622C28.3328 166.297 30.0563 170.963 33.4612 175.503C37.8751 181.515 38.2114 181.43 43.7182 186.054M41.4482 197.11C32.4944 194.966 22.91 197.11 18.9586 204.761C33.2931 206.989 36.7821 202.407 41.4482 197.11ZM68.1415 204.887C58.473 203.374 52.6299 206.526 47.2493 211.529C56.7916 213.799 64.4843 211.613 68.1415 204.887Z" fill="#F7A70C"/>
</g>
<defs>
<clipPath id="clip0_74_17871">
<rect width="587" height="212.411" fill="white"/>
</clipPath>
</defs>
</svg>
