<svg width="1080" height="1080" viewBox="0 0 1080 1080" fill="none" xmlns="http://www.w3.org/2000/svg">
<path d="M374.286 386.94C351.066 405.84 339.456 428.25 339.456 454.17C339.456 477.93 349.986 498.179 371.046 514.919C391.566 530.579 413.436 536.789 436.655 533.549C463.115 529.769 481.205 515.729 490.925 491.43C495.245 480.09 494.705 468.21 489.305 455.79C483.905 443.37 475.535 434.73 464.195 429.87C456.095 426.09 447.725 425.28 439.086 427.44C430.986 429.6 427.475 432.57 428.555 436.35C430.175 439.59 432.875 440.67 436.655 439.59C447.995 434.19 457.175 436.89 464.195 447.69C470.135 457.41 470.945 467.13 466.625 476.85C456.365 498.99 438.815 505.74 413.976 497.1C389.676 489 378.066 475.23 379.146 455.79C379.686 439.05 387.516 423.93 402.636 410.43C416.676 398.55 431.526 392.07 447.185 390.99H537.905V724.708C537.905 765.748 533.585 788.967 524.945 794.367C521.165 799.767 508.205 802.467 486.065 802.467C483.905 803.547 482.825 805.708 482.825 808.947C484.445 812.187 488.765 813.807 495.785 813.807C506.585 812.727 568.685 812.187 682.084 812.187C686.404 810.567 688.564 807.867 688.564 804.087C686.404 801.927 682.624 800.848 677.224 800.848L649.684 799.227L635.104 795.988C630.244 794.908 625.924 788.967 622.144 778.168C620.524 768.448 618.904 744.688 617.284 706.888V390.99C666.964 390.99 701.524 392.07 720.964 394.23C734.463 396.39 743.913 399.9 749.313 404.76C753.633 408 757.143 413.67 759.843 421.77L761.463 441.21L763.083 444.45L769.563 446.07C771.183 446.07 772.803 444.45 774.423 441.21L776.043 356.97C776.043 354.81 773.343 353.73 767.943 353.73L732.303 358.59H450.425C421.806 359.13 396.426 368.58 374.286 386.94Z" fill="#F7A70C"/>
</svg>
